<svg width="51" height="53" viewBox="0 0 51 53" fill="none" xmlns="http://www.w3.org/2000/svg">
<path d="M24.8289 11.9742C19.5717 3.84961 10.1855 0.628178 3.59604 0.602539V35.2343C13.5273 36.0341 19.6874 39.7701 24.8289 46.7782M24.8289 11.9742C24.8289 29.9817 24.8289 41.2019 24.8289 46.7782M24.8289 11.9742C27.9569 10.5279 29.764 10.0919 33.0479 9.7343M24.8289 51.6025C15.8777 48.3083 10.4862 47.9911 0 50.7411V48.3289M24.8289 51.6025C24.8289 51.6025 24.8289 51.1965 24.8289 48.8458M24.8289 51.6025C34.6586 47.7326 40.1705 47.8625 50 51.6025V11.9742C46.8287 10.4008 44.8201 9.94943 40.9247 9.7343M3.59604 8.87281C1.5411 8.87281 0 9.7343 0 9.7343V45.9167M24.8289 46.7782C13.9664 43.5539 8.55177 42.7523 0 45.9167M24.8289 46.7782C24.8289 47.5956 24.8289 48.2775 24.8289 48.8458M24.8289 46.7782C34.7311 43.2059 40.4884 43.352 50 45.9167M0 45.9167V48.3289M24.8289 48.8458C12.1138 44.4267 8.12041 46.3293 0 48.3289M24.8289 48.8458C34.6588 45.37 40.1701 45.8108 50 48.8458M10.274 7.83903C15.5914 9.25029 18.1763 10.647 21.7466 14.7309M7.19178 13.3525C15.1923 15.1298 18.2169 16.9152 21.7466 21.1059M7.19178 19.0384C15.5822 19.8998 21.7466 26.2748 21.7466 26.2748M7.19178 24.7242C13.7 26.1176 16.862 27.6099 21.7466 32.6498M7.19178 30.5823C14.3606 32.0586 17.3667 33.9455 21.7466 38.3356M34.0753 34.3015C30.5718 31.6959 28.8933 29.8809 29.4521 27.4809L36.1301 32.3219M34.0753 34.3015L28.7671 39.0248C28.6841 39.8865 29.0039 40.0652 29.9658 40.0586L35.274 35.1752M34.0753 34.3015C34.4538 34.5829 34.8535 34.8736 35.274 35.1752M35.274 35.1752C35.7602 35.524 36.2741 35.8874 36.8151 36.2681L37.6712 35.4066L44.6918 40.0586C45.334 40.0741 45.5364 39.9065 45.3767 39.0248L37.6712 33.339M36.1301 32.3219C36.1301 32.3219 36.9626 31.8126 37.1575 31.2715C37.3171 30.8287 36.9749 30.4991 37.1575 30.0654C37.3644 29.5742 38.1849 28.8593 38.1849 28.8593M36.1301 32.3219L37.6712 33.339M40.9247 26.7917L38.1849 28.8593M37.6712 33.339C37.6712 33.339 38.3324 32.6498 38.6986 32.6498C39.0648 32.6498 39.5223 33.0705 40.0685 32.9944C40.5994 32.9205 41.2671 32.3219 41.2671 32.3219M43.8356 29.7208L41.2671 32.3219M38.1849 28.8593L39.0648 30.0654M41.2671 32.3219L40.0685 31.0837M42.8082 28.8593L40.0685 31.0837M40.0685 31.0837L39.0648 30.0654M41.7808 27.8255L39.0648 30.0654M27.7397 22.4843C28.2534 9.3897 45.8904 9.3897 46.5753 22.4843M36.8151 12.4911V11.4881M36.8151 11.4881C36.6159 11.3856 36.4726 11.2031 36.4726 10.9404C36.4726 10.0789 38.0137 10.0789 38.0137 10.9404C38.0137 11.2031 37.8704 11.3856 37.6712 11.4881M36.8151 11.4881C37.0699 11.6193 37.4164 11.6193 37.6712 11.4881M37.6712 12.4911V11.4881M34.7603 6.63295C35.2914 6.90034 35.3565 7.17021 35.1027 7.83903C34.4198 8.44219 35.1027 9.21741 35.1027 9.21741M37.6712 8.18362C37.6712 8.18362 36.6459 7.40841 37.3288 6.80525C38.0137 6.63295 37.6712 5.59917 37.3288 5.59917M39.726 9.21741C39.726 9.21741 39.0431 8.44219 39.726 7.83903C39.9798 7.17021 39.9147 6.90034 39.3836 6.63295M26.5411 22.4843H47.9452C48.4041 23.0899 48.4802 23.4294 47.9452 24.035H26.5411C26.0469 23.4295 26.0842 23.0898 26.5411 22.4843Z" stroke="url(#paint0_linear_100_149)" stroke-width="1.2"/>
<defs>
<linearGradient id="paint0_linear_100_149" x1="50" y1="51.6025" x2="-0.249761" y2="10.5415" gradientUnits="userSpaceOnUse">
<stop stop-color="#845B27"/>
<stop offset="0.349299" stop-color="#C9A24D"/>
<stop offset="0.505" stop-color="#FFF3B0"/>
<stop offset="0.667316" stop-color="#C9A24D"/>
<stop offset="1" stop-color="#845B27"/>
</linearGradient>
</defs>
</svg>
