<svg width="69" height="71" viewBox="0 0 69 71" fill="none" xmlns="http://www.w3.org/2000/svg">
<path d="M33.988 15.6081C26.7914 4.45676 13.9428 0.0351903 4.92257 0V47.5338C18.5174 48.6316 26.9498 53.7594 33.988 63.3784M33.988 15.6081C33.988 40.3243 33.988 55.7246 33.988 63.3784M33.988 15.6081C38.2699 13.623 40.7436 13.0246 45.239 12.5338M33.988 70C21.7347 65.4785 14.3545 65.0431 0 68.8176V65.5068M33.988 70C33.988 70 33.988 69.4427 33.988 66.2162M33.988 70C47.4437 64.6883 54.9889 64.8665 68.4444 70V15.6081C64.1033 13.4486 61.3537 12.8291 56.0213 12.5338M4.92257 11.3514C2.10959 11.3514 0 12.5338 0 12.5338V62.1959M33.988 63.3784C19.1185 58.9528 11.7064 57.8526 0 62.1959M33.988 63.3784C33.988 64.5002 33.988 65.4362 33.988 66.2162M33.988 63.3784C47.543 58.4752 55.4241 58.6757 68.4444 62.1959M0 62.1959V65.5068M33.988 66.2162C16.5825 60.1508 11.1159 62.7622 0 65.5068M33.988 66.2162C47.444 61.4455 54.9885 62.0506 68.4444 66.2162M14.0639 9.93244C21.3429 11.8695 24.8813 13.7865 29.7686 19.3919M9.84475 17.5C20.7966 19.9394 24.9369 22.3899 29.7686 28.1419M9.84475 25.3041C21.3303 26.4865 29.7686 35.2365 29.7686 35.2365M9.84475 33.1081C18.7538 35.0206 23.0821 37.0689 29.7686 43.9865M9.84475 41.1487C19.6581 43.175 23.773 45.7648 29.7686 51.7905M46.6454 46.2535C41.8494 42.6772 39.5517 40.186 40.3166 36.8919L49.4581 43.5364M46.6454 46.2535L39.379 52.7365C39.2654 53.9192 39.7031 54.1645 41.0198 54.1554L48.2861 47.4527M46.6454 46.2535C47.1634 46.6398 47.7105 47.0387 48.2861 47.4527M48.2861 47.4527C48.9517 47.9314 49.6553 48.4301 50.3957 48.9527L51.5677 47.7703L61.1781 54.1554C62.0572 54.1766 62.3343 53.9466 62.1157 52.7365L51.5677 44.9324M49.4581 43.5364C49.4581 43.5364 50.5977 42.8373 50.8645 42.0946C51.0829 41.4868 50.6145 41.0344 50.8645 40.4392C51.1477 39.765 52.2709 38.7838 52.2709 38.7838M49.4581 43.5364L51.5677 44.9324M56.0213 35.9459L52.2709 38.7838M51.5677 44.9324C51.5677 44.9324 52.4728 43.9865 52.9741 43.9865C53.4754 43.9865 54.1016 44.5638 54.8493 44.4595C55.576 44.358 56.4901 43.5364 56.4901 43.5364M60.0061 39.9662L56.4901 43.5364M52.2709 38.7838L53.4754 40.4392M56.4901 43.5364L54.8493 41.8369M58.5997 38.7838L54.8493 41.8369M54.8493 41.8369L53.4754 40.4392M57.1933 37.3649L53.4754 40.4392M37.9726 30.0338C38.6758 12.0608 62.8189 12.0608 63.7565 30.0338M50.3957 16.3176V14.941M50.3957 14.941C50.1231 14.8003 49.9269 14.5497 49.9269 14.1892C49.9269 13.0068 52.0365 13.0068 52.0365 14.1892C52.0365 14.5497 51.8404 14.8003 51.5677 14.941M50.3957 14.941C50.7446 15.121 51.2188 15.121 51.5677 14.941M51.5677 16.3176V14.941M47.583 8.27703C48.31 8.64404 48.3991 9.01445 48.0518 9.93244C47.1169 10.7603 48.0518 11.8243 48.0518 11.8243M51.5677 10.4054C51.5677 10.4054 50.1641 9.34139 51.0989 8.51352C52.0365 8.27703 51.5677 6.85811 51.0989 6.85811M54.3805 11.8243C54.3805 11.8243 53.4457 10.7603 54.3805 9.93244C54.7279 9.01445 54.6387 8.64404 53.9117 8.27703M36.3318 30.0338H65.6317C66.2599 30.865 66.364 31.331 65.6317 32.1622H36.3318C35.6554 31.3311 35.7064 30.8649 36.3318 30.0338Z" stroke="url(#logoDarkGradient)"/>
<defs>
<linearGradient id="logoDarkGradient" x1="68.4444" y1="70" x2="-0.488896" y2="13.8221" gradientUnits="userSpaceOnUse">
<stop stop-color="#6E4A1E"/>
<stop offset="0.25" stop-color="#C9A24D"/>
<stop offset="0.505" stop-color="#FFF3B0"/>
<stop offset="0.75" stop-color="#C9A24D"/>
<stop offset="1" stop-color="#6E4A1E"/>
</linearGradient>
</defs>
</svg>
