<svg width="70" height="72" viewBox="0 0 70 72" fill="none" xmlns="http://www.w3.org/2000/svg">
<path d="M34.488 16.1101C27.2914 4.95872 14.4428 0.537143 5.42257 0.501953V48.0357C19.0174 49.1335 27.4498 54.2614 34.488 63.8803M34.488 16.1101C34.488 40.8262 34.488 56.2265 34.488 63.8803M34.488 16.1101C38.7699 14.125 41.2436 13.5265 45.739 13.0357M34.488 70.502C22.2347 65.9804 14.8545 65.545 0.5 69.3195V66.0087M34.488 70.502C34.488 70.502 34.488 69.9447 34.488 66.7182M34.488 70.502C47.9437 65.1903 55.4889 65.3685 68.9444 70.502V16.1101C64.6033 13.9505 61.8537 13.331 56.5213 13.0357M5.42257 11.8533C2.60959 11.8533 0.5 13.0357 0.5 13.0357V62.6979M34.488 63.8803C19.6185 59.4548 12.2064 58.3546 0.5 62.6979M34.488 63.8803C34.488 65.0022 34.488 65.9382 34.488 66.7182M34.488 63.8803C48.043 58.9772 55.9241 59.1777 68.9444 62.6979M0.5 62.6979V66.0087M34.488 66.7182C17.0825 60.6528 11.6159 63.2641 0.5 66.0087M34.488 66.7182C47.944 61.9475 55.4885 62.5526 68.9444 66.7182M14.5639 10.4344C21.8429 12.3714 25.3813 14.2885 30.2686 19.8939M10.3447 18.002C21.2966 20.4413 25.4369 22.8919 30.2686 28.6438M10.3447 25.806C21.8303 26.9884 30.2686 35.7384 30.2686 35.7384M10.3447 33.6101C19.2538 35.5226 23.5821 37.5709 30.2686 44.4884M10.3447 41.6506C20.1581 43.6769 24.273 46.2668 30.2686 52.2925M47.1454 46.7554C42.3494 43.1792 40.0517 40.6879 40.8166 37.3938L49.9581 44.0384M47.1454 46.7554L39.879 53.2384C39.7654 54.4212 40.2031 54.6664 41.5198 54.6574L48.7861 47.9547M47.1454 46.7554C47.6634 47.1417 48.2105 47.5407 48.7861 47.9547M48.7861 47.9547C49.4517 48.4333 50.1553 48.9321 50.8957 49.4547L52.0677 48.2722L61.6781 54.6574C62.5572 54.6786 62.8343 54.4485 62.6157 53.2384L52.0677 45.4344M49.9581 44.0384C49.9581 44.0384 51.0977 43.3392 51.3645 42.5966C51.5829 41.9888 51.1145 41.5364 51.3645 40.9411C51.6477 40.267 52.7709 39.2857 52.7709 39.2857M49.9581 44.0384L52.0677 45.4344M56.5213 36.4479L52.7709 39.2857M52.0677 45.4344C52.0677 45.4344 52.9728 44.4884 53.4741 44.4884C53.9754 44.4884 54.6016 45.0658 55.3493 44.9614C56.076 44.86 56.9901 44.0384 56.9901 44.0384M60.5061 40.4682L56.9901 44.0384M52.7709 39.2857L53.9754 40.9411M56.9901 44.0384L55.3493 42.3389M59.0997 39.2857L55.3493 42.3389M55.3493 42.3389L53.9754 40.9411M57.6933 37.8668L53.9754 40.9411M38.4726 30.5357C39.1758 12.5628 63.3189 12.5628 64.2565 30.5357M50.8957 16.8195V15.443M50.8957 15.443C50.6231 15.3023 50.4269 15.0517 50.4269 14.6911C50.4269 13.5087 52.5365 13.5087 52.5365 14.6911C52.5365 15.0517 52.3404 15.3023 52.0677 15.443M50.8957 15.443C51.2446 15.623 51.7188 15.623 52.0677 15.443M52.0677 16.8195V15.443M48.083 8.77899C48.81 9.14599 48.8991 9.5164 48.5518 10.4344C47.6169 11.2623 48.5518 12.3263 48.5518 12.3263M52.0677 10.9074C52.0677 10.9074 50.6641 9.84334 51.5989 9.01547C52.5365 8.77899 52.0677 7.36007 51.5989 7.36007M54.8805 12.3263C54.8805 12.3263 53.9457 11.2623 54.8805 10.4344C55.2279 9.5164 55.1387 9.14599 54.4117 8.77899M36.8318 30.5357H66.1317C66.7599 31.3669 66.864 31.8329 66.1317 32.6641H36.8318C36.1554 31.8331 36.2064 31.3668 36.8318 30.5357Z" stroke="url(#paint0_linear_121_2)"/>
<defs>
<linearGradient id="paint0_linear_121_2" x1="45.2702" y1="52.056" x2="13.1639" y2="25.8489" gradientUnits="userSpaceOnUse">
<stop stop-color="#6A3F22"/>
<stop offset="0.22" stop-color="#A86A3D"/>
<stop offset="0.5" stop-color="#F2C9A0"/>
<stop offset="0.78" stop-color="#A86A3D"/>
<stop offset="1" stop-color="#6A3F22"/>
</linearGradient>
</defs>
</svg>
