<svg width="48" height="48" viewBox="0 0 48 48" fill="none" xmlns="http://www.w3.org/2000/svg">
<path fill-rule="evenodd" clip-rule="evenodd" d="M13.4017 6.70989C15.2797 2.74495 19.3175 0 24 0C28.6826 0 32.7204 2.74495 34.5982 6.70989C34.7855 6.70178 34.9737 6.69767 35.1628 6.69767C42.2525 6.69767 48 12.4451 48 19.5349C48 24.4032 45.2903 28.6352 41.3023 30.8111V37.5114C41.3023 39.5174 41.3025 41.19 41.1239 42.518C40.9355 43.9196 40.5209 45.185 39.504 46.2017C38.4873 47.2186 37.2219 47.6332 35.8203 47.8216C34.4924 48.0002 32.8197 48 30.8138 48H17.1863C15.1803 48 13.5076 48.0002 12.1798 47.8216C10.7782 47.6332 9.51277 47.2186 8.49591 46.2017C7.47905 45.185 7.06453 43.9196 6.87608 42.518C6.69754 41.19 6.69761 39.5174 6.69767 37.5114V30.8111C2.70968 28.6352 0 24.4032 0 19.5349C0 12.4451 5.74741 6.69767 12.8372 6.69767C13.0263 6.69767 13.2145 6.70178 13.4017 6.70989ZM12.3965 10.0566C7.36083 10.2868 3.34884 14.4423 3.34884 19.5349C3.34884 23.4231 5.68787 26.7688 9.04249 28.2345C9.65235 28.5008 10.0465 29.1034 10.0465 29.7689V37.3954C10.0465 39.5475 10.0501 40.9933 10.1951 42.0717C10.3336 43.102 10.5729 43.5429 10.8639 43.8338C11.1548 44.1247 11.5958 44.3641 12.626 44.5027C13.7044 44.6476 15.1501 44.6512 17.3023 44.6512H30.6977C32.8499 44.6512 34.2957 44.6476 35.374 44.5027C36.4043 44.3641 36.8452 44.1247 37.1361 43.8338C37.4271 43.5429 37.6664 43.102 37.805 42.0717C37.9499 40.9933 37.9535 39.5475 37.9535 37.3954V29.7689C37.9535 29.1034 38.3475 28.5008 38.9575 28.2345C42.3121 26.7688 44.6512 23.4231 44.6512 19.5349C44.6512 14.4423 40.6393 10.2868 35.6035 10.0566C35.681 10.6007 35.7209 11.1565 35.7209 11.7209V12.8372C35.7209 13.762 34.9712 14.5116 34.0465 14.5116C33.1218 14.5116 32.3721 13.762 32.3721 12.8372V11.7209C32.3721 10.7769 32.2165 9.87264 31.9309 9.03039C30.8097 5.72432 27.6802 3.34884 24 3.34884C20.3199 3.34884 17.1903 5.72432 16.0691 9.03039C15.7835 9.87264 15.6279 10.7769 15.6279 11.7209V12.8372C15.6279 13.762 14.8782 14.5116 13.9535 14.5116C13.0287 14.5116 12.2791 13.762 12.2791 12.8372V11.7209C12.2791 11.1565 12.3191 10.6007 12.3965 10.0566ZM15.6279 37.3954C15.6279 36.4706 16.3776 35.7209 17.3023 35.7209H30.6977C31.6224 35.7209 32.3721 36.4706 32.3721 37.3954C32.3721 38.3201 31.6224 39.0698 30.6977 39.0698H17.3023C16.3776 39.0698 15.6279 38.3201 15.6279 37.3954Z" fill="black"/>
</svg>
