<svg width="24" height="24" viewBox="0 0 24 24" fill="none" xmlns="http://www.w3.org/2000/svg">
<path d="M13.2 12.21L15.9 14.91C16.12 15.13 16.23 15.4052 16.23 15.7356C16.23 16.066 16.12 16.3508 15.9 16.59C15.66 16.83 15.3752 16.95 15.0456 16.95C14.716 16.95 14.4308 16.83 14.19 16.59L11.16 13.56C11.04 13.44 10.95 13.3052 10.89 13.1556C10.83 13.006 10.8 12.8508 10.8 12.69V8.4C10.8 8.06 10.9152 7.7752 11.1456 7.5456C11.376 7.316 11.6608 7.2008 12 7.2C12.3392 7.1992 12.6244 7.3144 12.8556 7.5456C13.0868 7.7768 13.2016 8.0616 13.2 8.4V12.21ZM12 4.8C11.66 4.8 11.3752 4.6848 11.1456 4.4544C10.916 4.224 10.8008 3.9392 10.8 3.6V2.4H13.2V3.6C13.2 3.94 13.0848 4.2252 12.8544 4.4556C12.624 4.686 12.3392 4.8008 12 4.8ZM19.2 12C19.2 11.66 19.3152 11.3752 19.5456 11.1456C19.776 10.916 20.0608 10.8008 20.4 10.8H21.6V13.2H20.4C20.06 13.2 19.7752 13.0848 19.5456 12.8544C19.316 12.624 19.2008 12.3392 19.2 12ZM12 19.2C12.34 19.2 12.6252 19.3152 12.8556 19.5456C13.086 19.776 13.2008 20.0608 13.2 20.4V21.6H10.8V20.4C10.8 20.06 10.9152 19.7752 11.1456 19.5456C11.376 19.316 11.6608 19.2008 12 19.2ZM4.8 12C4.8 12.34 4.6848 12.6252 4.4544 12.8556C4.224 13.086 3.9392 13.2008 3.6 13.2H2.4V10.8H3.6C3.94 10.8 4.2252 10.9152 4.4556 11.1456C4.686 11.376 4.8008 11.6608 4.8 12ZM12 24C10.34 24 8.78 23.6848 7.32 23.0544C5.86 22.424 4.59 21.5692 3.51 20.49C2.43 19.4108 1.5752 18.1408 0.945601 16.68C0.316001 15.2192 0.000801518 13.6592 1.51899e-06 12C-0.00079848 10.3408 0.314401 8.7808 0.945601 7.32C1.5768 5.8592 2.4316 4.5892 3.51 3.51C4.5884 2.4308 5.8584 1.576 7.32 0.9456C8.7816 0.3152 10.3416 0 12 0C13.6584 0 15.2184 0.3152 16.68 0.9456C18.1416 1.576 19.4116 2.4308 20.49 3.51C21.5684 4.5892 22.4236 5.8592 23.0556 7.32C23.6876 8.7808 24.0024 10.3408 24 12C23.9976 13.6592 23.6824 15.2192 23.0544 16.68C22.4264 18.1408 21.5716 19.4108 20.49 20.49C19.4084 21.5692 18.1384 22.4244 16.68 23.0556C15.2216 23.6868 13.6616 24.0016 12 24ZM21.6 12C21.6 9.32 20.67 7.05 18.81 5.19C16.95 3.33 14.68 2.4 12 2.4C9.32 2.4 7.05 3.33 5.19 5.19C3.33 7.05 2.4 9.32 2.4 12C2.4 14.68 3.33 16.95 5.19 18.81C7.05 20.67 9.32 21.6 12 21.6C14.68 21.6 16.95 20.67 18.81 18.81C20.67 16.95 21.6 14.68 21.6 12Z" fill="black"/>
</svg>
