<svg width="56" height="48" viewBox="0 0 56 48" fill="none" xmlns="http://www.w3.org/2000/svg">
<path d="M27.3 15.5294C26.1402 15.5294 25.2 16.4775 25.2 17.6471C25.2 18.8166 26.1402 19.7647 27.3 19.7647C31.0016 19.7647 34.893 21.9068 36.8463 24.722C37.5113 25.6803 38.8206 25.9138 39.7709 25.2432C40.7212 24.5726 40.9525 23.2523 40.2878 22.2941C37.5575 18.3592 32.3882 15.5294 27.3 15.5294ZM21 7.05882C21 3.16035 24.134 0 28 0C31.866 0 35 3.16035 35 7.05882V9.54231C44.3514 12.5172 51.1 21.3482 51.1 31.7647C51.1 32.9342 50.1598 33.8824 49 33.8824H7C5.84021 33.8824 4.9 32.9342 4.9 31.7647C4.9 21.3779 11.6821 12.5844 21 9.57758V7.05882ZM30.8 7.05882C30.8 5.49944 29.5464 4.23529 28 4.23529C26.4536 4.23529 25.2 5.49944 25.2 7.05882V8.64745C26.1374 8.53073 27.092 8.47064 28.0599 8.47064C28.9876 8.47064 29.9018 8.52576 30.8 8.63294V7.05882ZM9.21628 29.6471H46.7855C45.747 20.1138 37.779 12.7059 28.0599 12.7059C18.3276 12.7059 10.2683 20.126 9.21628 29.6471ZM5.6 36.7059C2.5072 36.7059 0 39.2341 0 42.3529C0 45.4718 2.5072 48 5.6 48H50.4C53.4929 48 56 45.4718 56 42.3529C56 39.2341 53.4929 36.7059 50.4 36.7059H5.6ZM4.2 42.3529C4.2 41.5734 4.82681 40.9412 5.6 40.9412H50.4C51.1731 40.9412 51.8 41.5734 51.8 42.3529C51.8 43.1325 51.1731 43.7647 50.4 43.7647H5.6C4.82681 43.7647 4.2 43.1325 4.2 42.3529Z" fill="black"/>
</svg>
