<svg width="24" height="24" viewBox="0 0 24 24" fill="none" xmlns="http://www.w3.org/2000/svg">
<path d="M12.004 24C10.3453 24 8.78533 23.6853 7.324 23.056C5.86356 22.4258 4.59289 21.5707 3.512 20.4907C2.43111 19.4107 1.57556 18.1413 0.945334 16.6827C0.315111 15.224 0 13.6644 0 12.004C0 10.3436 0.315111 8.78355 0.945334 7.324C1.57467 5.86355 2.42844 4.59289 3.50667 3.512C4.58489 2.43111 5.85467 1.57556 7.316 0.945333C8.77733 0.315111 10.3373 0 11.996 0C13.6547 0 15.2147 0.315111 16.676 0.945333C18.1364 1.57467 19.4071 2.42889 20.488 3.508C21.5689 4.58711 22.4244 5.85689 23.0547 7.31733C23.6849 8.77778 24 10.3373 24 11.996C24 13.6547 23.6853 15.2147 23.056 16.676C22.4267 18.1373 21.5716 19.408 20.4907 20.488C19.4098 21.568 18.1404 22.4236 16.6827 23.0547C15.2249 23.6858 13.6653 24.0009 12.004 24ZM12 22.6667C14.9778 22.6667 17.5 21.6333 19.5667 19.5667C21.6333 17.5 22.6667 14.9778 22.6667 12C22.6667 11.8444 22.6653 11.6876 22.6627 11.5293C22.66 11.3711 22.6502 11.2196 22.6333 11.0747C22.5738 11.6676 22.3382 12.1582 21.9267 12.5467C21.5142 12.9342 21.0089 13.128 20.4107 13.128H17.0253C16.4049 13.128 15.8738 12.9076 15.432 12.4667C14.9902 12.0258 14.7693 11.4956 14.7693 10.876V9.74933H10.256V7.496C10.256 6.87644 10.4773 6.344 10.92 5.89867C11.3618 5.45333 11.8929 5.23067 12.5133 5.23067H13.6413V4.204C13.6413 3.55689 13.8529 3.04756 14.276 2.676C14.6991 2.30444 15.2044 2.09022 15.792 2.03333C15.1938 1.80222 14.5804 1.628 13.952 1.51067C13.3236 1.39333 12.6729 1.33422 12 1.33333C9.02222 1.33333 6.5 2.36667 4.43333 4.43333C2.36667 6.5 1.33333 9.02222 1.33333 12V12.3853C1.33333 12.5044 1.34222 12.6324 1.36 12.7693H7.33333C8.59556 12.7693 9.66311 13.2062 10.536 14.08C11.4098 14.9529 11.8467 16.0164 11.8467 17.2707V18.4107H8.46133V22.0507C9.00889 22.248 9.58044 22.4 10.176 22.5067C10.7716 22.6133 11.3796 22.6667 12 22.6667Z" fill="black"/>
</svg>
