<svg width="19" height="24" viewBox="0 0 19 24" fill="none" xmlns="http://www.w3.org/2000/svg">
<path d="M9.5 12C10.1531 12 10.7124 11.7652 11.1779 11.2956C11.6434 10.826 11.8758 10.2608 11.875 9.6C11.8742 8.9392 11.6419 8.3744 11.1779 7.9056C10.714 7.4368 10.1547 7.2016 9.5 7.2C8.84529 7.1984 8.28637 7.4336 7.82325 7.9056C7.36012 8.3776 7.12737 8.9424 7.125 9.6C7.12262 10.2576 7.35537 10.8228 7.82325 11.2956C8.29112 11.7684 8.85004 12.0032 9.5 12ZM9.5 20.82C11.9146 18.58 13.7057 16.5452 14.8734 14.7156C16.0411 12.886 16.625 11.2608 16.625 9.84C16.625 7.66 15.9374 5.8752 14.5623 4.4856C13.1872 3.096 11.4997 2.4008 9.5 2.4C7.50025 2.3992 5.81321 3.0944 4.43887 4.4856C3.06454 5.8768 2.37658 7.6616 2.375 9.84C2.375 11.26 2.95885 12.8852 4.12656 14.7156C5.29427 16.546 7.08542 18.5808 9.5 20.82ZM9.5 24C6.31354 21.26 3.93379 18.7152 2.36075 16.3656C0.787708 14.016 0.000791667 11.8408 0 9.84C0 6.84 0.955146 4.45 2.86544 2.67C4.77573 0.89 6.98725 0 9.5 0C12.0127 0 14.2247 0.89 16.1357 2.67C18.0468 4.45 19.0016 6.84 19 9.84C19 11.84 18.2135 14.0152 16.6404 16.3656C15.0674 18.716 12.6872 21.2608 9.5 24Z" fill="black"/>
</svg>
