<svg width="48" height="48" viewBox="0 0 48 48" fill="none" xmlns="http://www.w3.org/2000/svg">
<g opacity="0.8">
<path fill-rule="evenodd" clip-rule="evenodd" d="M7.99951 9.00001C7.99951 7.67386 8.52632 6.40202 9.46405 5.46429C10.4018 4.52657 11.6736 3.99976 12.9998 3.99976H35.0003C36.3262 4.00015 37.5976 4.52714 38.535 5.46483C39.4724 6.40251 39.999 7.67412 39.999 9.00001V14.4998C39.999 14.7649 39.8937 15.0192 39.7062 15.2067C39.5187 15.3942 39.2644 15.4995 38.9993 15.4995C38.7341 15.4995 38.4798 15.3942 38.2923 15.2067C38.1048 15.0192 37.9995 14.7649 37.9995 14.4998V9.00001C37.9995 8.20436 37.6834 7.44129 37.1208 6.87869C36.5582 6.31608 35.7952 6.00001 34.9995 6.00001H12.999C12.2034 6.00001 11.4403 6.31608 10.8777 6.87869C10.3151 7.44129 9.99901 8.20436 9.99901 9.00001V39C9.99901 39.7957 10.3151 40.5587 10.8777 41.1213C11.4403 41.6839 12.2034 42 12.999 42H34.9995C35.7952 42 36.5582 41.6839 37.1208 41.1213C37.6834 40.5587 37.9995 39.7957 37.9995 39V33.4995C37.9995 33.2344 38.1048 32.9801 38.2923 32.7926C38.4798 32.6051 38.7341 32.4998 38.9993 32.4998C39.2644 32.4998 39.5187 32.6051 39.7062 32.7926C39.8937 32.9801 39.999 33.2344 39.999 33.4995V39C39.9988 40.3259 39.472 41.5974 38.5345 42.535C37.5969 43.4725 36.3254 43.9993 34.9995 43.9995H12.999C11.6733 43.9991 10.4019 43.4722 9.46454 42.5347C8.52715 41.5972 8.00046 40.3258 8.00026 39L7.99951 9.00001Z" fill="black"/>
<path fill-rule="evenodd" clip-rule="evenodd" d="M33.2925 18.2925C32.9025 18.6833 32.9025 19.3163 33.2925 19.707L36.5858 22.9995H21C20.7348 22.9995 20.4804 23.1049 20.2928 23.2924C20.1052 23.48 19.9999 23.7344 19.9999 23.9996C19.9999 24.2649 20.1052 24.5193 20.2928 24.7068C20.4804 24.8944 20.7348 24.9998 21 24.9998H36.585L33.2925 28.2923C33.1996 28.3851 33.1259 28.4953 33.0757 28.6166C33.0254 28.7379 32.9995 28.8679 32.9994 28.9992C32.9994 29.1306 33.0252 29.2606 33.0755 29.3819C33.1257 29.5033 33.1993 29.6135 33.2921 29.7064C33.385 29.7993 33.4952 29.873 33.6165 29.9232C33.7378 29.9735 33.8678 29.9994 33.9991 29.9994C34.1304 29.9995 34.2605 29.9737 34.3818 29.9234C34.5031 29.8732 34.6134 29.7996 34.7063 29.7068L39.7065 24.7073C40.0965 24.3173 40.0965 23.6835 39.7065 23.2928L34.7063 18.2933C34.6134 18.2003 34.5032 18.1266 34.3818 18.0763C34.2604 18.026 34.1304 18.0001 33.999 18.0001C33.8676 18.0001 33.7376 18.026 33.6162 18.0763C33.4949 18.1266 33.3846 18.2003 33.2918 18.2933L33.2925 18.2925Z" fill="black"/>
</g>
</svg>
