<svg width="51" height="48" viewBox="0 0 51 48" fill="none" xmlns="http://www.w3.org/2000/svg">
<path d="M0 1.71429C0 1.25963 0.179108 0.823594 0.497923 0.502103C0.816738 0.180612 1.24914 0 1.70002 0H6.80006C7.17927 0.000105639 7.54756 0.128059 7.84636 0.363513C8.14516 0.598967 8.35731 0.928402 8.44908 1.29943L9.82609 6.85714H49.3005C49.5587 6.85721 49.8135 6.91661 50.0456 7.03081C50.2776 7.14501 50.4809 7.31103 50.6398 7.51625C50.7987 7.72147 50.9092 7.96051 50.9629 8.21523C51.0166 8.46994 51.012 8.73363 50.9495 8.98629L45.8494 29.5577C45.7577 29.9287 45.5455 30.2582 45.2467 30.4936C44.9479 30.7291 44.5796 30.857 44.2004 30.8571H13.6001C13.2209 30.857 12.8526 30.7291 12.5538 30.4936C12.255 30.2582 12.0429 29.9287 11.9511 29.5577L5.47405 3.42857H1.70002C1.24914 3.42857 0.816738 3.24796 0.497923 2.92647C0.179108 2.60498 0 2.16894 0 1.71429ZM10.6761 10.2857L12.3761 17.1429H17.0002V10.2857H10.6761ZM20.4002 10.2857V17.1429H27.2003V10.2857H20.4002ZM30.6003 10.2857V17.1429H37.4003V10.2857H30.6003ZM40.8004 10.2857V17.1429H45.4244L47.1244 10.2857H40.8004ZM44.5744 20.5714H40.8004V27.4286H42.8744L44.5744 20.5714ZM37.4003 20.5714H30.6003V27.4286H37.4003V20.5714ZM27.2003 20.5714H20.4002V27.4286H27.2003V20.5714ZM17.0002 20.5714H13.2261L14.9261 27.4286H17.0002V20.5714ZM17.0002 37.7143C16.0984 37.7143 15.2336 38.0755 14.596 38.7185C13.9583 39.3615 13.6001 40.2335 13.6001 41.1429C13.6001 42.0522 13.9583 42.9242 14.596 43.5672C15.2336 44.2102 16.0984 44.5714 17.0002 44.5714C17.9019 44.5714 18.7667 44.2102 19.4043 43.5672C20.042 42.9242 20.4002 42.0522 20.4002 41.1429C20.4002 40.2335 20.042 39.3615 19.4043 38.7185C18.7667 38.0755 17.9019 37.7143 17.0002 37.7143ZM10.2001 41.1429C10.2001 39.3242 10.9165 37.5801 12.1918 36.2941C13.467 35.0082 15.1967 34.2857 17.0002 34.2857C18.8036 34.2857 20.5333 35.0082 21.8085 36.2941C23.0838 37.5801 23.8002 39.3242 23.8002 41.1429C23.8002 42.9615 23.0838 44.7056 21.8085 45.9916C20.5333 47.2776 18.8036 48 17.0002 48C15.1967 48 13.467 47.2776 12.1918 45.9916C10.9165 44.7056 10.2001 42.9615 10.2001 41.1429ZM40.8004 37.7143C39.8986 37.7143 39.0338 38.0755 38.3962 38.7185C37.7586 39.3615 37.4003 40.2335 37.4003 41.1429C37.4003 42.0522 37.7586 42.9242 38.3962 43.5672C39.0338 44.2102 39.8986 44.5714 40.8004 44.5714C41.7021 44.5714 42.5669 44.2102 43.2046 43.5672C43.8422 42.9242 44.2004 42.0522 44.2004 41.1429C44.2004 40.2335 43.8422 39.3615 43.2046 38.7185C42.5669 38.0755 41.7021 37.7143 40.8004 37.7143ZM34.0003 41.1429C34.0003 39.3242 34.7167 37.5801 35.992 36.2941C37.2673 35.0082 38.9969 34.2857 40.8004 34.2857C42.6039 34.2857 44.3335 35.0082 45.6087 36.2941C46.884 37.5801 47.6004 39.3242 47.6004 41.1429C47.6004 42.9615 46.884 44.7056 45.6087 45.9916C44.3335 47.2776 42.6039 48 40.8004 48C38.9969 48 37.2673 47.2776 35.992 45.9916C34.7167 44.7056 34.0003 42.9615 34.0003 41.1429Z" fill="black"/>
</svg>
