<svg width="18" height="18" viewBox="0 0 18 18" fill="none" xmlns="http://www.w3.org/2000/svg">
<path fill-rule="evenodd" clip-rule="evenodd" d="M9 0C9.34677 0 9.62791 0.281127 9.62791 0.627907V2.30233C9.62791 2.64911 9.34677 2.93023 9 2.93023C8.65323 2.93023 8.37209 2.64911 8.37209 2.30233V0.627907C8.37209 0.281127 8.65323 0 9 0ZM2.02492 2.06463C2.25892 1.8087 2.65609 1.79092 2.91202 2.02492L4.77231 3.72578C5.02825 3.95978 5.04603 4.35695 4.81203 4.61288C4.57803 4.86882 4.18086 4.8866 3.92492 4.6526L2.06463 2.95174C1.8087 2.71774 1.79092 2.32057 2.02492 2.06463ZM15.9751 2.06463C16.2091 2.32057 16.1913 2.71774 15.9354 2.95174L14.0751 4.6526C13.8191 4.8866 13.422 4.86882 13.188 4.61288C12.954 4.35695 12.9717 3.95978 13.2277 3.72578L15.088 2.02492C15.344 1.79092 15.741 1.8087 15.9751 2.06463ZM9 5.44186C7.03489 5.44186 5.44186 7.03489 5.44186 9C5.44186 10.9651 7.03489 12.5581 9 12.5581C10.9651 12.5581 12.5581 10.9651 12.5581 9C12.5581 7.03489 10.9651 5.44186 9 5.44186ZM4.18605 9C4.18605 6.34132 6.34132 4.18605 9 4.18605C11.6586 4.18605 13.814 6.34132 13.814 9C13.814 11.6586 11.6586 13.814 9 13.814C6.34132 13.814 4.18605 11.6586 4.18605 9ZM0 9C0 8.65323 0.281127 8.37209 0.627907 8.37209H2.30233C2.64911 8.37209 2.93023 8.65323 2.93023 9C2.93023 9.34677 2.64911 9.62791 2.30233 9.62791H0.627907C0.281127 9.62791 0 9.34677 0 9ZM15.0698 9C15.0698 8.65323 15.3509 8.37209 15.6977 8.37209H17.3721C17.7189 8.37209 18 8.65323 18 9C18 9.34677 17.7189 9.62791 17.3721 9.62791H15.6977C15.3509 9.62791 15.0698 9.34677 15.0698 9ZM13.2074 13.2071C13.4526 12.9619 13.8502 12.9619 14.0954 13.2071L15.9557 15.0677C16.2009 15.3129 16.2008 15.7105 15.9556 15.9557C15.7104 16.2009 15.3128 16.2008 15.0677 15.9556L13.2074 14.0951C12.9622 13.8499 12.9622 13.4524 13.2074 13.2071ZM4.79275 13.2072C5.03796 13.4524 5.03796 13.85 4.79275 14.0953L2.93228 15.9557C2.68707 16.2009 2.2895 16.2009 2.04428 15.9557C1.79907 15.7105 1.79907 15.3129 2.04428 15.0678L3.90475 13.2072C4.14996 12.962 4.54753 12.962 4.79275 13.2072ZM9 15.0698C9.34677 15.0698 9.62791 15.3509 9.62791 15.6977V17.3721C9.62791 17.7189 9.34677 18 9 18C8.65323 18 8.37209 17.7189 8.37209 17.3721V15.6977C8.37209 15.3509 8.65323 15.0698 9 15.0698Z" fill="black"/>
</svg>
