<svg width="48" height="48" viewBox="0 0 48 48" fill="none" xmlns="http://www.w3.org/2000/svg">
<path d="M24 0C10.7423 0 0 10.7423 0 24C0 37.2577 10.7423 48 24 48C37.2577 48 48 37.2577 48 24C48 10.7423 37.2577 0 24 0ZM24 1.99615C36.1269 1.99615 46.0038 11.8615 46.0038 24C46.0038 29.3654 44.0769 34.2808 40.8808 38.1C38.5731 37.1538 33.2769 35.3192 30.1615 34.3962C29.8846 34.3154 29.85 34.2923 29.85 33.1615C29.85 32.2269 30.2308 31.2808 30.6115 30.4731C31.0269 29.6077 31.5 28.1423 31.6731 26.8269C32.1577 26.2615 32.8269 25.1538 33.2423 23.0308C33.6115 21.1615 33.4385 20.4808 33.1962 19.8462C33.1731 19.7769 33.1385 19.7077 33.1269 19.65C33.0346 19.2115 33.1615 16.9385 33.4846 15.1731C33.7038 13.9615 33.4269 11.3885 31.7654 9.25385C30.7154 7.90385 28.6962 6.25385 25.0154 6.02308H22.9962C19.3731 6.25385 17.3654 7.90385 16.3038 9.25385C14.6308 11.3885 14.3538 13.9615 14.5731 15.1731C14.8962 16.9385 15.0231 19.2115 14.9308 19.65C14.9077 19.7308 14.8846 19.7885 14.8615 19.8577C14.6192 20.4923 14.4346 21.1731 14.8154 23.0423C15.2423 25.1654 15.9 26.2731 16.3846 26.8385C16.5577 28.1538 17.0423 29.6077 17.4462 30.4846C17.7462 31.1192 17.8846 31.9846 17.8846 33.2077C17.8846 34.35 17.8385 34.3615 17.5846 34.4423C14.3423 35.4 9.20769 37.2462 7.15385 38.1346C3.93462 34.3038 1.99615 29.3769 1.99615 24C1.99615 11.8731 11.8731 1.99615 24 1.99615Z" fill="#D6CFC3"/>
</svg>
