<svg width="51" height="53" viewBox="0 0 51 53" fill="none" xmlns="http://www.w3.org/2000/svg">
<path d="M24.8289 11.974C19.5717 3.84941 10.1855 0.627979 3.59604 0.602341V35.2341C13.5273 36.0339 19.6874 39.7699 24.8289 46.778M24.8289 11.974C24.8289 29.9815 24.8289 41.2017 24.8289 46.778M24.8289 11.974C27.9569 10.5277 29.764 10.0917 33.0479 9.7341M24.8289 51.6023C15.8777 48.3081 10.4862 47.9909 0 50.7409V48.3287M24.8289 51.6023C24.8289 51.6023 24.8289 51.1963 24.8289 48.8456M24.8289 51.6023C34.6586 47.7324 40.1705 47.8623 50 51.6023V11.974C46.8287 10.4006 44.8201 9.94923 40.9247 9.7341M3.59604 8.87262C1.5411 8.87262 0 9.7341 0 9.7341V45.9165M24.8289 46.778C13.9664 43.5537 8.55177 42.7521 0 45.9165M24.8289 46.778C24.8289 47.5954 24.8289 48.2773 24.8289 48.8456M24.8289 46.778C34.7311 43.2057 40.4884 43.3518 50 45.9165M0 45.9165V48.3287M24.8289 48.8456C12.1138 44.4265 8.12041 46.3291 0 48.3287M24.8289 48.8456C34.6588 45.3698 40.1702 45.8106 50 48.8456M10.274 7.83883C15.5914 9.25009 18.1763 10.6468 21.7466 14.7307M7.19178 13.3523C15.1923 15.1296 18.2169 16.915 21.7466 21.1057M7.19178 19.0382C15.5822 19.8996 21.7466 26.2746 21.7466 26.2746M7.19178 24.724C13.7 26.1174 16.862 27.6097 21.7466 32.6496M7.19178 30.5821C14.3606 32.0584 17.3667 33.9453 21.7466 38.3355M34.0753 34.3013C30.5718 31.6957 28.8933 29.8807 29.4521 27.4807L36.1301 32.3217M34.0753 34.3013L28.7671 39.0246C28.6841 39.8864 29.0039 40.065 29.9658 40.0584L35.274 35.175M34.0753 34.3013C34.4538 34.5828 34.8535 34.8734 35.274 35.175M35.274 35.175C35.7602 35.5238 36.2741 35.8872 36.8151 36.2679L37.6712 35.4064L44.6918 40.0584C45.334 40.0739 45.5364 39.9063 45.3767 39.0246L37.6712 33.3388M36.1301 32.3217C36.1301 32.3217 36.9626 31.8124 37.1575 31.2713C37.3171 30.8285 36.9749 30.4989 37.1575 30.0652C37.3644 29.574 38.1849 28.8591 38.1849 28.8591M36.1301 32.3217L37.6712 33.3388M40.9247 26.7915L38.1849 28.8591M37.6712 33.3388C37.6712 33.3388 38.3324 32.6496 38.6986 32.6496C39.0648 32.6496 39.5223 33.0703 40.0685 32.9942C40.5994 32.9203 41.2671 32.3217 41.2671 32.3217M43.8356 29.7206L41.2671 32.3217M38.1849 28.8591L39.0648 30.0652M41.2671 32.3217L40.0685 31.0835M42.8082 28.8591L40.0685 31.0835M40.0685 31.0835L39.0648 30.0652M41.7808 27.8253L39.0648 30.0652M27.7397 22.4841C28.2534 9.38951 45.8904 9.38951 46.5753 22.4841M36.8151 12.4909V11.4879M36.8151 11.4879C36.6159 11.3854 36.4726 11.2029 36.4726 10.9402C36.4726 10.0787 38.0137 10.0787 38.0137 10.9402C38.0137 11.2029 37.8704 11.3854 37.6712 11.4879M36.8151 11.4879C37.0699 11.6191 37.4164 11.6191 37.6712 11.4879M37.6712 12.4909V11.4879M34.7603 6.63275C35.2914 6.90014 35.3565 7.17001 35.1027 7.83883C34.4198 8.44199 35.1027 9.21721 35.1027 9.21721M37.6712 8.18343C37.6712 8.18343 36.6459 7.40821 37.3288 6.80505C38.0137 6.63275 37.6712 5.59897 37.3288 5.59897M39.726 9.21721C39.726 9.21721 39.0431 8.44199 39.726 7.83883C39.9798 7.17001 39.9147 6.90014 39.3836 6.63275M26.5411 22.4841H47.9452C48.4041 23.0897 48.4802 23.4292 47.9452 24.0348H26.5411C26.0469 23.4293 26.0842 23.0896 26.5411 22.4841Z" stroke="url(#paint0_linear_19_13)" stroke-width="1.2"/>
<defs>
<linearGradient id="paint0_linear_19_13" x1="34" y1="44.1023" x2="8.83064" y2="16.2554" gradientUnits="userSpaceOnUse">
<stop offset="0.0951801" stop-color="#6A3F22"/>
<stop offset="0.287202" stop-color="#A86A3D"/>
<stop offset="0.448546" stop-color="#F2C9A0"/>
<stop offset="0.648967" stop-color="#A86A3D"/>
<stop offset="1" stop-color="#6A3F22"/>
</linearGradient>
</defs>
</svg>
