<svg width="49" height="51" viewBox="0 0 49 51" fill="none" xmlns="http://www.w3.org/2000/svg">
<path d="M24.3358 11.4276C19.2888 3.62169 10.2781 0.526586 3.9522 0.501953V33.7756C13.4863 34.5441 19.3999 38.1335 24.3358 44.8668M24.3358 11.4276C24.3358 28.729 24.3358 39.5092 24.3358 44.8668M24.3358 11.4276C27.3386 10.0381 29.0734 9.61914 32.226 9.27561M24.3358 49.502C15.7425 46.3369 10.5668 46.0321 0.5 48.6742V46.3567M24.3358 49.502C24.3358 49.502 24.3358 49.1119 24.3358 46.8533M24.3358 49.502C33.7722 45.7838 39.0636 45.9085 48.5 49.502V11.4276C45.4555 9.91594 43.5273 9.4823 39.7877 9.27561M3.9522 8.4479C1.97945 8.4479 0.5 9.27561 0.5 9.27561V44.0391M24.3358 44.8668C13.9078 41.7689 8.7097 40.9988 0.5 44.0391M24.3358 44.8668C24.3358 45.6521 24.3358 46.3073 24.3358 46.8533M24.3358 44.8668C33.8418 41.4346 39.3688 41.575 48.5 44.0391M0.5 44.0391V46.3567M24.3358 46.8533C12.1293 42.6075 8.29559 44.4355 0.5 46.3567M24.3358 46.8533C33.7724 43.5138 39.0633 43.9374 48.5 46.8533M10.363 7.45466C15.4677 8.81058 17.9492 10.1525 21.3767 14.0763M7.40411 12.752C15.0847 14.4595 17.9882 16.1749 21.3767 20.2013M7.40411 18.2148C15.4589 19.0425 21.3767 25.1675 21.3767 25.1675M7.40411 23.6776C13.652 25.0164 16.6875 26.4502 21.3767 31.2925M7.40411 29.306C14.2862 30.7244 17.172 32.5373 21.3767 36.7553M33.2123 32.8794C29.8489 30.376 28.2376 28.6321 28.774 26.3263L35.1849 30.9774M33.2123 32.8794L28.1164 37.4175C28.0367 38.2454 28.3437 38.4171 29.2671 38.4107L34.363 33.7188M33.2123 32.8794C33.5756 33.1498 33.9593 33.4291 34.363 33.7188M34.363 33.7188C34.8298 34.0539 35.3232 34.4031 35.8425 34.7688L36.6644 33.9411L43.4041 38.4107C44.0207 38.4256 44.215 38.2645 44.0616 37.4175L36.6644 31.9547M35.1849 30.9774C35.1849 30.9774 35.9841 30.4881 36.1712 29.9682C36.3244 29.5427 35.9959 29.2261 36.1712 28.8094C36.3698 28.3375 37.1575 27.6506 37.1575 27.6506M35.1849 30.9774L36.6644 31.9547M39.7877 25.6641L37.1575 27.6506M36.6644 31.9547C36.6644 31.9547 37.2991 31.2925 37.6507 31.2925C38.0023 31.2925 38.4414 31.6966 38.9658 31.6236C39.4754 31.5526 40.1164 30.9774 40.1164 30.9774M42.5822 28.4783L40.1164 30.9774M37.1575 27.6506L38.0023 28.8094M40.1164 30.9774L38.9658 29.7878M41.5959 27.6506L38.9658 29.7878M38.9658 29.7878L38.0023 28.8094M40.6096 26.6574L38.0023 28.8094M27.1301 21.5256C27.6233 8.94452 44.5548 8.94452 45.2123 21.5256M35.8425 11.9243V10.9607M35.8425 10.9607C35.6512 10.8622 35.5137 10.6868 35.5137 10.4344C35.5137 9.60669 36.9932 9.60669 36.9932 10.4344C36.9932 10.6868 36.8556 10.8622 36.6644 10.9607M35.8425 10.9607C36.0871 11.0867 36.4197 11.0867 36.6644 10.9607M36.6644 11.9243V10.9607M33.8699 6.29588C34.3797 6.55278 34.4422 6.81207 34.1986 7.45466C33.5431 8.03417 34.1986 8.77898 34.1986 8.77898M36.6644 7.78574C36.6644 7.78574 35.68 7.04092 36.3356 6.46142C36.9932 6.29588 36.6644 5.30263 36.3356 5.30263M38.637 8.77898C38.637 8.77898 37.9814 8.03417 38.637 7.45466C38.8806 6.81207 38.8181 6.55278 38.3082 6.29588M25.9795 21.5256H46.5274C46.968 22.1074 47.041 22.4336 46.5274 23.0155H25.9795C25.5051 22.4337 25.5408 22.1074 25.9795 21.5256Z" stroke="#6E2B2B"/>
</svg>
